<svg width="53" height="14" viewBox="0 0 53 14" fill="none" xmlns="http://www.w3.org/2000/svg">
<path d="M0.0559305 14H4.78604C7.87979 14 9.1582 12.4915 9.1582 10.5227C9.1582 8.4517 7.72639 7.3267 6.52468 7.25V7.12216C7.64968 6.81534 8.64684 6.07386 8.64684 4.38636C8.64684 2.46875 7.36843 0.909091 4.63264 0.909091H0.0559305V14ZM1.64116 12.5938V8.04261H4.86275C6.57582 8.04261 7.64968 9.19318 7.64968 10.5227C7.64968 11.6733 6.85707 12.5938 4.78604 12.5938H1.64116ZM1.64116 6.66193V2.31534H4.63264C6.37127 2.31534 7.13832 3.2358 7.13832 4.38636C7.13832 5.76705 6.01332 6.66193 4.5815 6.66193H1.64116ZM13.0669 7.7358V4.18182H11.5584V14H15.6749C17.976 14 19.2289 12.5938 19.2289 10.8295C19.2289 9.03977 17.976 7.7358 15.6749 7.7358H13.0669ZM20.7885 14H22.2971V4.18182H20.7885V14ZM13.0669 9.14205H15.6749C16.8702 9.14205 17.7203 9.87074 17.7203 10.9062C17.7203 11.897 16.8702 12.5938 15.6749 12.5938H13.0669V9.14205ZM26.5669 11.7756V4.18182H25.0584V14H26.8226L31.5272 6.40625V14H33.0357V4.18182H31.2971L26.5669 11.7756ZM30.2999 0.909091C30.2999 1.57386 29.9419 2.16193 29.0471 2.16193C28.1522 2.16193 27.8198 1.57386 27.8198 0.909091H26.4135C26.4135 2.28977 27.4363 3.26136 29.0471 3.26136C30.6834 3.26136 31.7061 2.28977 31.7061 0.909091H30.2999ZM34.4627 5.58807H37.7099V14H39.2184V5.58807H42.44V4.18182H34.4627V5.58807ZM46.149 11.7756V4.18182H44.6404V14H46.4047L51.1092 6.40625V14H52.6177V4.18182H50.8791L46.149 11.7756Z" fill="#A9A9A9"/>
</svg>
